<?xml version="1.0" encoding="UTF-8"?>
<svg xmlns="http://www.w3.org/2000/svg" xmlns:xlink="http://www.w3.org/1999/xlink"
     width="200" height="280" viewBox="0 0 100 140">
<defs>
</defs>
<rect x="0" y="0" width="100" height="140" fill="#777" />
<rect x="6" y="126" width="8" height="8" fill="#1248ff" fill-opacity="0.5" />
<rect x="26" y="126" width="8" height="8" fill="#1248ff" fill-opacity="0.5" />
<rect x="46" y="126" width="8" height="8" fill="#1248ff" fill-opacity="0.5" />
<rect x="66" y="126" width="8" height="8" fill="#1248ff" fill-opacity="0.5" />
<rect x="86" y="126" width="8" height="8" fill="#1248ff" fill-opacity="0.5" />
<rect x="6" y="106" width="8" height="8" fill="#1248ff" fill-opacity="0.5" />
<rect x="26" y="106" width="8" height="8" fill="#1248ff" fill-opacity="0.5" />
<rect x="46" y="106" width="8" height="8" fill="#1248ff" fill-opacity="0.5" />
<rect x="66" y="106" width="8" height="8" fill="#1248ff" fill-opacity="0.5" />
<rect x="86" y="106" width="8" height="8" fill="#1248ff" fill-opacity="0.5" />
<rect x="6" y="86" width="8" height="8" fill="#1248ff" fill-opacity="0.5" />
<rect x="26" y="86" width="8" height="8" fill="#1248ff" fill-opacity="0.5" />
<rect x="46" y="86" width="8" height="8" fill="#1248ff" fill-opacity="0.5" />
<rect x="66" y="86" width="8" height="8" fill="#1248ff" fill-opacity="0.5" />
<rect x="86" y="86" width="8" height="8" fill="#1248ff" fill-opacity="0.5" />
<rect x="6" y="66" width="8" height="8" fill="#1248ff" fill-opacity="0.5" />
<rect x="26" y="66" width="8" height="8" fill="#1248ff" fill-opacity="0.5" />
<rect x="46" y="66" width="8" height="8" fill="#1248ff" fill-opacity="0.5" />
<rect x="66" y="66" width="8" height="8" fill="#1248ff" fill-opacity="0.5" />
<rect x="86" y="66" width="8" height="8" fill="#1248ff" fill-opacity="0.5" />
<rect x="6" y="46" width="8" height="8" fill="#1248ff" fill-opacity="0.5" />
<rect x="26" y="46" width="8" height="8" fill="#1248ff" fill-opacity="0.5" />
<rect x="46" y="46" width="8" height="8" fill="#1248ff" fill-opacity="0.5" />
<rect x="66" y="46" width="8" height="8" fill="#1248ff" fill-opacity="0.5" />
<rect x="86" y="46" width="8" height="8" fill="#1248ff" fill-opacity="0.5" />
<rect x="6" y="26" width="8" height="8" fill="#1248ff" fill-opacity="0.5" />
<rect x="26" y="26" width="8" height="8" fill="#1248ff" fill-opacity="0.5" />
<rect x="46" y="26" width="8" height="8" fill="#1248ff" fill-opacity="0.5" />
<rect x="66" y="26" width="8" height="8" fill="#1248ff" fill-opacity="0.5" />
<rect x="86" y="26" width="8" height="8" fill="#1248ff" fill-opacity="0.5" />
<rect x="6" y="6" width="8" height="8" fill="#1248ff" fill-opacity="0.5" />
<rect x="26" y="6" width="8" height="8" fill="#1248ff" fill-opacity="0.5" />
<rect x="46" y="6" width="8" height="8" fill="#1248ff" fill-opacity="0.5" />
<rect x="66" y="6" width="8" height="8" fill="#1248ff" fill-opacity="0.5" />
<rect x="86" y="6" width="8" height="8" fill="#1248ff" fill-opacity="0.5" />
<circle cx="40" cy="80" r="4" fill="black" />
<circle cx="50" cy="80" r="4" fill="black" />
<circle cx="60" cy="80" r="4" fill="black" />
<circle cx="40" cy="70" r="4" fill="black" />
<circle cx="50" cy="70" r="4" fill="black" />
<circle cx="60" cy="70" r="4" fill="black" />
<circle cx="40" cy="60" r="4" fill="black" />
<circle cx="50" cy="60" r="4" fill="black" />
<circle cx="60" cy="60" r="4" fill="black" />
<path d="M40,80 L50,80" fill="#eeee00" stroke="black" />
<path d="M40,80 L50,70" fill="#eeee00" stroke="black" />
<path d="M40,80 L40,70" fill="#eeee00" stroke="black" />
<path d="M50,80 L60,80" fill="#eeee00" stroke="black" />
<path d="M50,80 L60,70" fill="#eeee00" stroke="black" />
<path d="M50,80 L50,70" fill="#eeee00" stroke="black" />
<path d="M50,80 L40,70" fill="#eeee00" stroke="black" />
<path d="M60,80 L60,70" fill="#eeee00" stroke="black" />
<path d="M60,80 L50,70" fill="#eeee00" stroke="black" />
<path d="M40,70 L50,70" fill="#eeee00" stroke="black" />
<path d="M40,70 L50,60" fill="#eeee00" stroke="black" />
<path d="M40,70 L40,60" fill="#eeee00" stroke="black" />
<path d="M50,70 L60,70" fill="#eeee00" stroke="black" />
<path d="M50,70 L60,60" fill="#eeee00" stroke="black" />
<path d="M50,70 L50,60" fill="#eeee00" stroke="black" />
<path d="M50,70 L40,60" fill="#eeee00" stroke="black" />
<path d="M60,70 L60,60" fill="#eeee00" stroke="black" />
<path d="M60,70 L50,60" fill="#eeee00" stroke="black" />
<path d="M40,60 L50,60" fill="#eeee00" stroke="black" />
<path d="M50,60 L60,60" fill="#eeee00" stroke="black" />
</svg>