<?xml version="1.0" encoding="UTF-8"?>
<svg xmlns="http://www.w3.org/2000/svg" xmlns:xlink="http://www.w3.org/1999/xlink"
     width="200" height="280" viewBox="0 0 100 140">
<defs>
</defs>
<rect x="0" y="0" width="100" height="140" fill="#777" />
<rect x="6" y="126" width="8" height="8" fill="#1248ff" fill-opacity="0.5" />
<rect x="6" y="106" width="8" height="8" fill="#1248ff" fill-opacity="0.5" />
<rect x="6" y="86" width="8" height="8" fill="#1248ff" fill-opacity="0.5" />
<rect x="6" y="66" width="8" height="8" fill="#1248ff" fill-opacity="0.5" />
<rect x="6" y="46" width="8" height="8" fill="#1248ff" fill-opacity="0.5" />
<rect x="6" y="26" width="8" height="8" fill="#1248ff" fill-opacity="0.5" />
<rect x="6" y="6" width="8" height="8" fill="#1248ff" fill-opacity="0.5" />
<rect x="26" y="126" width="8" height="8" fill="#1248ff" fill-opacity="0.5" />
<rect x="26" y="106" width="8" height="8" fill="#1248ff" fill-opacity="0.5" />
<rect x="26" y="86" width="8" height="8" fill="#1248ff" fill-opacity="0.5" />
<rect x="26" y="66" width="8" height="8" fill="#1248ff" fill-opacity="0.5" />
<rect x="26" y="46" width="8" height="8" fill="#1248ff" fill-opacity="0.5" />
<rect x="26" y="26" width="8" height="8" fill="#1248ff" fill-opacity="0.5" />
<rect x="26" y="6" width="8" height="8" fill="#1248ff" fill-opacity="0.5" />
<rect x="46" y="126" width="8" height="8" fill="#1248ff" fill-opacity="0.5" />
<rect x="46" y="106" width="8" height="8" fill="#1248ff" fill-opacity="0.5" />
<rect x="46" y="86" width="8" height="8" fill="#1248ff" fill-opacity="0.5" />
<rect x="46" y="66" width="8" height="8" fill="#1248ff" fill-opacity="0.5" />
<rect x="46" y="46" width="8" height="8" fill="#1248ff" fill-opacity="0.5" />
<rect x="46" y="26" width="8" height="8" fill="#1248ff" fill-opacity="0.5" />
<rect x="46" y="6" width="8" height="8" fill="#1248ff" fill-opacity="0.5" />
<rect x="66" y="126" width="8" height="8" fill="#1248ff" fill-opacity="0.5" />
<rect x="66" y="106" width="8" height="8" fill="#1248ff" fill-opacity="0.5" />
<rect x="66" y="86" width="8" height="8" fill="#1248ff" fill-opacity="0.5" />
<rect x="66" y="66" width="8" height="8" fill="#1248ff" fill-opacity="0.5" />
<rect x="66" y="46" width="8" height="8" fill="#1248ff" fill-opacity="0.5" />
<rect x="66" y="26" width="8" height="8" fill="#1248ff" fill-opacity="0.5" />
<rect x="66" y="6" width="8" height="8" fill="#1248ff" fill-opacity="0.5" />
<rect x="86" y="126" width="8" height="8" fill="#1248ff" fill-opacity="0.5" />
<rect x="86" y="106" width="8" height="8" fill="#1248ff" fill-opacity="0.5" />
<rect x="86" y="86" width="8" height="8" fill="#1248ff" fill-opacity="0.5" />
<rect x="86" y="66" width="8" height="8" fill="#1248ff" fill-opacity="0.5" />
<rect x="86" y="46" width="8" height="8" fill="#1248ff" fill-opacity="0.5" />
<rect x="86" y="26" width="8" height="8" fill="#1248ff" fill-opacity="0.5" />
<rect x="86" y="6" width="8" height="8" fill="#1248ff" fill-opacity="0.5" />
<circle cx="10" cy="90" r="4" fill="black" />
<circle cx="10" cy="50" r="4" fill="black" />
<circle cx="10" cy="30" r="4" fill="black" />
<circle cx="50" cy="50" r="4" fill="black" />
<circle cx="50" cy="30" r="4" fill="black" />
<circle cx="70" cy="110" r="4" fill="black" />
<circle cx="10" cy="130" r="4" fill="black" />
<circle cx="90" cy="110" r="4" fill="black" />
<circle cx="30" cy="10" r="4" fill="black" />
<path d="M10,90 L10,50" fill="#eeee00" stroke="black" />
<path d="M10,90 L50,30" fill="#eeee00" stroke="black" />
<path d="M10,90 L50,50" fill="#eeee00" stroke="black" />
<path d="M10,50 L10,30" fill="#eeee00" stroke="black" />
<path d="M10,50 L70,110" fill="#eeee00" stroke="black" />
<path d="M10,50 L50,30" fill="#eeee00" stroke="black" />
<path d="M10,50 L50,50" fill="#eeee00" stroke="black" />
<path d="M10,30 L70,110" fill="#eeee00" stroke="black" />
<path d="M10,30 L50,30" fill="#eeee00" stroke="black" />
<path d="M50,50 L50,30" fill="#eeee00" stroke="black" />
<path d="M50,50 L90,110" fill="#eeee00" stroke="black" />
<path d="M50,50 L10,130" fill="#eeee00" stroke="black" />
<path d="M50,30 L70,110" fill="#eeee00" stroke="black" />
<path d="M50,30 L30,10" fill="#eeee00" stroke="black" />
<path d="M50,30 L90,110" fill="#eeee00" stroke="black" />
<path d="M50,30 L10,130" fill="#eeee00" stroke="black" />
<path d="M70,110 L30,10" fill="#eeee00" stroke="black" />
<path d="M70,110 L90,110" fill="#eeee00" stroke="black" />
<path d="M10,130 L90,110" fill="#eeee00" stroke="black" />
<path d="M90,110 L30,10" fill="#eeee00" stroke="black" />
</svg>