<?xml version="1.0" encoding="UTF-8"?>
<svg xmlns="http://www.w3.org/2000/svg" xmlns:xlink="http://www.w3.org/1999/xlink"
     width="400" height="560" viewBox="0 0 200 280">
<defs>
</defs>
<rect x="0" y="0" width="200" height="280" fill="#777" />
<rect x="6" y="266" width="8" height="8" fill="#1248ff" fill-opacity="0.5" />
<rect x="26" y="266" width="8" height="8" fill="#1248ff" fill-opacity="0.5" />
<rect x="46" y="266" width="8" height="8" fill="#1248ff" fill-opacity="0.5" />
<rect x="66" y="266" width="8" height="8" fill="#1248ff" fill-opacity="0.5" />
<rect x="86" y="266" width="8" height="8" fill="#1248ff" fill-opacity="0.5" />
<rect x="106" y="266" width="8" height="8" fill="#1248ff" fill-opacity="0.5" />
<rect x="126" y="266" width="8" height="8" fill="#1248ff" fill-opacity="0.5" />
<rect x="146" y="266" width="8" height="8" fill="#1248ff" fill-opacity="0.5" />
<rect x="166" y="266" width="8" height="8" fill="#1248ff" fill-opacity="0.5" />
<rect x="186" y="266" width="8" height="8" fill="#1248ff" fill-opacity="0.5" />
<rect x="6" y="246" width="8" height="8" fill="#1248ff" fill-opacity="0.5" />
<rect x="26" y="246" width="8" height="8" fill="#1248ff" fill-opacity="0.5" />
<rect x="46" y="246" width="8" height="8" fill="#1248ff" fill-opacity="0.5" />
<rect x="66" y="246" width="8" height="8" fill="#1248ff" fill-opacity="0.5" />
<rect x="86" y="246" width="8" height="8" fill="#1248ff" fill-opacity="0.5" />
<rect x="106" y="246" width="8" height="8" fill="#1248ff" fill-opacity="0.5" />
<rect x="126" y="246" width="8" height="8" fill="#1248ff" fill-opacity="0.5" />
<rect x="146" y="246" width="8" height="8" fill="#1248ff" fill-opacity="0.5" />
<rect x="166" y="246" width="8" height="8" fill="#1248ff" fill-opacity="0.5" />
<rect x="186" y="246" width="8" height="8" fill="#1248ff" fill-opacity="0.5" />
<rect x="6" y="226" width="8" height="8" fill="#1248ff" fill-opacity="0.5" />
<rect x="26" y="226" width="8" height="8" fill="#1248ff" fill-opacity="0.5" />
<rect x="46" y="226" width="8" height="8" fill="#1248ff" fill-opacity="0.5" />
<rect x="66" y="226" width="8" height="8" fill="#1248ff" fill-opacity="0.5" />
<rect x="86" y="226" width="8" height="8" fill="#1248ff" fill-opacity="0.5" />
<rect x="106" y="226" width="8" height="8" fill="#1248ff" fill-opacity="0.5" />
<rect x="126" y="226" width="8" height="8" fill="#1248ff" fill-opacity="0.5" />
<rect x="146" y="226" width="8" height="8" fill="#1248ff" fill-opacity="0.5" />
<rect x="166" y="226" width="8" height="8" fill="#1248ff" fill-opacity="0.5" />
<rect x="186" y="226" width="8" height="8" fill="#1248ff" fill-opacity="0.5" />
<rect x="6" y="206" width="8" height="8" fill="#1248ff" fill-opacity="0.5" />
<rect x="26" y="206" width="8" height="8" fill="#1248ff" fill-opacity="0.5" />
<rect x="46" y="206" width="8" height="8" fill="#1248ff" fill-opacity="0.5" />
<rect x="66" y="206" width="8" height="8" fill="#1248ff" fill-opacity="0.5" />
<rect x="86" y="206" width="8" height="8" fill="#1248ff" fill-opacity="0.5" />
<rect x="106" y="206" width="8" height="8" fill="#1248ff" fill-opacity="0.5" />
<rect x="126" y="206" width="8" height="8" fill="#1248ff" fill-opacity="0.5" />
<rect x="146" y="206" width="8" height="8" fill="#1248ff" fill-opacity="0.5" />
<rect x="166" y="206" width="8" height="8" fill="#1248ff" fill-opacity="0.5" />
<rect x="186" y="206" width="8" height="8" fill="#1248ff" fill-opacity="0.5" />
<rect x="6" y="186" width="8" height="8" fill="#1248ff" fill-opacity="0.5" />
<rect x="26" y="186" width="8" height="8" fill="#1248ff" fill-opacity="0.5" />
<rect x="46" y="186" width="8" height="8" fill="#1248ff" fill-opacity="0.5" />
<rect x="66" y="186" width="8" height="8" fill="#1248ff" fill-opacity="0.5" />
<rect x="86" y="186" width="8" height="8" fill="#1248ff" fill-opacity="0.5" />
<rect x="106" y="186" width="8" height="8" fill="#1248ff" fill-opacity="0.5" />
<rect x="126" y="186" width="8" height="8" fill="#1248ff" fill-opacity="0.5" />
<rect x="146" y="186" width="8" height="8" fill="#1248ff" fill-opacity="0.5" />
<rect x="166" y="186" width="8" height="8" fill="#1248ff" fill-opacity="0.5" />
<rect x="186" y="186" width="8" height="8" fill="#1248ff" fill-opacity="0.5" />
<rect x="6" y="166" width="8" height="8" fill="#1248ff" fill-opacity="0.5" />
<rect x="26" y="166" width="8" height="8" fill="#1248ff" fill-opacity="0.5" />
<rect x="46" y="166" width="8" height="8" fill="#1248ff" fill-opacity="0.5" />
<rect x="66" y="166" width="8" height="8" fill="#1248ff" fill-opacity="0.5" />
<rect x="86" y="166" width="8" height="8" fill="#1248ff" fill-opacity="0.5" />
<rect x="106" y="166" width="8" height="8" fill="#1248ff" fill-opacity="0.5" />
<rect x="126" y="166" width="8" height="8" fill="#1248ff" fill-opacity="0.5" />
<rect x="146" y="166" width="8" height="8" fill="#1248ff" fill-opacity="0.5" />
<rect x="166" y="166" width="8" height="8" fill="#1248ff" fill-opacity="0.5" />
<rect x="186" y="166" width="8" height="8" fill="#1248ff" fill-opacity="0.5" />
<rect x="6" y="146" width="8" height="8" fill="#1248ff" fill-opacity="0.5" />
<rect x="26" y="146" width="8" height="8" fill="#1248ff" fill-opacity="0.5" />
<rect x="46" y="146" width="8" height="8" fill="#1248ff" fill-opacity="0.5" />
<rect x="66" y="146" width="8" height="8" fill="#1248ff" fill-opacity="0.5" />
<rect x="86" y="146" width="8" height="8" fill="#1248ff" fill-opacity="0.5" />
<rect x="106" y="146" width="8" height="8" fill="#1248ff" fill-opacity="0.5" />
<rect x="126" y="146" width="8" height="8" fill="#1248ff" fill-opacity="0.5" />
<rect x="146" y="146" width="8" height="8" fill="#1248ff" fill-opacity="0.5" />
<rect x="166" y="146" width="8" height="8" fill="#1248ff" fill-opacity="0.5" />
<rect x="186" y="146" width="8" height="8" fill="#1248ff" fill-opacity="0.5" />
<rect x="6" y="126" width="8" height="8" fill="#1248ff" fill-opacity="0.5" />
<rect x="26" y="126" width="8" height="8" fill="#1248ff" fill-opacity="0.5" />
<rect x="46" y="126" width="8" height="8" fill="#1248ff" fill-opacity="0.5" />
<rect x="66" y="126" width="8" height="8" fill="#1248ff" fill-opacity="0.5" />
<rect x="86" y="126" width="8" height="8" fill="#1248ff" fill-opacity="0.5" />
<rect x="106" y="126" width="8" height="8" fill="#1248ff" fill-opacity="0.5" />
<rect x="126" y="126" width="8" height="8" fill="#1248ff" fill-opacity="0.5" />
<rect x="146" y="126" width="8" height="8" fill="#1248ff" fill-opacity="0.5" />
<rect x="166" y="126" width="8" height="8" fill="#1248ff" fill-opacity="0.5" />
<rect x="186" y="126" width="8" height="8" fill="#1248ff" fill-opacity="0.5" />
<rect x="6" y="106" width="8" height="8" fill="#1248ff" fill-opacity="0.5" />
<rect x="26" y="106" width="8" height="8" fill="#1248ff" fill-opacity="0.5" />
<rect x="46" y="106" width="8" height="8" fill="#1248ff" fill-opacity="0.5" />
<rect x="66" y="106" width="8" height="8" fill="#1248ff" fill-opacity="0.5" />
<rect x="86" y="106" width="8" height="8" fill="#1248ff" fill-opacity="0.5" />
<rect x="106" y="106" width="8" height="8" fill="#1248ff" fill-opacity="0.5" />
<rect x="126" y="106" width="8" height="8" fill="#1248ff" fill-opacity="0.5" />
<rect x="146" y="106" width="8" height="8" fill="#1248ff" fill-opacity="0.5" />
<rect x="166" y="106" width="8" height="8" fill="#1248ff" fill-opacity="0.5" />
<rect x="186" y="106" width="8" height="8" fill="#1248ff" fill-opacity="0.5" />
<rect x="6" y="86" width="8" height="8" fill="#1248ff" fill-opacity="0.5" />
<rect x="26" y="86" width="8" height="8" fill="#1248ff" fill-opacity="0.5" />
<rect x="46" y="86" width="8" height="8" fill="#1248ff" fill-opacity="0.5" />
<rect x="66" y="86" width="8" height="8" fill="#1248ff" fill-opacity="0.5" />
<rect x="86" y="86" width="8" height="8" fill="#1248ff" fill-opacity="0.5" />
<rect x="106" y="86" width="8" height="8" fill="#1248ff" fill-opacity="0.5" />
<rect x="126" y="86" width="8" height="8" fill="#1248ff" fill-opacity="0.5" />
<rect x="146" y="86" width="8" height="8" fill="#1248ff" fill-opacity="0.5" />
<rect x="166" y="86" width="8" height="8" fill="#1248ff" fill-opacity="0.5" />
<rect x="186" y="86" width="8" height="8" fill="#1248ff" fill-opacity="0.5" />
<rect x="6" y="66" width="8" height="8" fill="#1248ff" fill-opacity="0.5" />
<rect x="26" y="66" width="8" height="8" fill="#1248ff" fill-opacity="0.5" />
<rect x="46" y="66" width="8" height="8" fill="#1248ff" fill-opacity="0.5" />
<rect x="66" y="66" width="8" height="8" fill="#1248ff" fill-opacity="0.5" />
<rect x="86" y="66" width="8" height="8" fill="#1248ff" fill-opacity="0.5" />
<rect x="106" y="66" width="8" height="8" fill="#1248ff" fill-opacity="0.5" />
<rect x="126" y="66" width="8" height="8" fill="#1248ff" fill-opacity="0.5" />
<rect x="146" y="66" width="8" height="8" fill="#1248ff" fill-opacity="0.5" />
<rect x="166" y="66" width="8" height="8" fill="#1248ff" fill-opacity="0.5" />
<rect x="186" y="66" width="8" height="8" fill="#1248ff" fill-opacity="0.5" />
<rect x="6" y="46" width="8" height="8" fill="#1248ff" fill-opacity="0.5" />
<rect x="26" y="46" width="8" height="8" fill="#1248ff" fill-opacity="0.5" />
<rect x="46" y="46" width="8" height="8" fill="#1248ff" fill-opacity="0.5" />
<rect x="66" y="46" width="8" height="8" fill="#1248ff" fill-opacity="0.5" />
<rect x="86" y="46" width="8" height="8" fill="#1248ff" fill-opacity="0.5" />
<rect x="106" y="46" width="8" height="8" fill="#1248ff" fill-opacity="0.5" />
<rect x="126" y="46" width="8" height="8" fill="#1248ff" fill-opacity="0.5" />
<rect x="146" y="46" width="8" height="8" fill="#1248ff" fill-opacity="0.5" />
<rect x="166" y="46" width="8" height="8" fill="#1248ff" fill-opacity="0.5" />
<rect x="186" y="46" width="8" height="8" fill="#1248ff" fill-opacity="0.5" />
<rect x="6" y="26" width="8" height="8" fill="#1248ff" fill-opacity="0.5" />
<rect x="26" y="26" width="8" height="8" fill="#1248ff" fill-opacity="0.5" />
<rect x="46" y="26" width="8" height="8" fill="#1248ff" fill-opacity="0.5" />
<rect x="66" y="26" width="8" height="8" fill="#1248ff" fill-opacity="0.5" />
<rect x="86" y="26" width="8" height="8" fill="#1248ff" fill-opacity="0.5" />
<rect x="106" y="26" width="8" height="8" fill="#1248ff" fill-opacity="0.5" />
<rect x="126" y="26" width="8" height="8" fill="#1248ff" fill-opacity="0.5" />
<rect x="146" y="26" width="8" height="8" fill="#1248ff" fill-opacity="0.5" />
<rect x="166" y="26" width="8" height="8" fill="#1248ff" fill-opacity="0.5" />
<rect x="186" y="26" width="8" height="8" fill="#1248ff" fill-opacity="0.5" />
<rect x="6" y="6" width="8" height="8" fill="#1248ff" fill-opacity="0.5" />
<rect x="26" y="6" width="8" height="8" fill="#1248ff" fill-opacity="0.5" />
<rect x="46" y="6" width="8" height="8" fill="#1248ff" fill-opacity="0.5" />
<rect x="66" y="6" width="8" height="8" fill="#1248ff" fill-opacity="0.5" />
<rect x="86" y="6" width="8" height="8" fill="#1248ff" fill-opacity="0.5" />
<rect x="106" y="6" width="8" height="8" fill="#1248ff" fill-opacity="0.5" />
<rect x="126" y="6" width="8" height="8" fill="#1248ff" fill-opacity="0.5" />
<rect x="146" y="6" width="8" height="8" fill="#1248ff" fill-opacity="0.5" />
<rect x="166" y="6" width="8" height="8" fill="#1248ff" fill-opacity="0.5" />
<rect x="186" y="6" width="8" height="8" fill="#1248ff" fill-opacity="0.5" />
<circle cx="50" cy="270" r="4" fill="black" />
<circle cx="150" cy="190" r="4" fill="black" />
<circle cx="190" cy="230" r="4" fill="black" />
<circle cx="130" cy="270" r="4" fill="black" />
<circle cx="10" cy="270" r="4" fill="black" />
<circle cx="30" cy="230" r="4" fill="black" />
<circle cx="90" cy="230" r="4" fill="black" />
<circle cx="110" cy="270" r="4" fill="black" />
<circle cx="130" cy="190" r="4" fill="black" />
<circle cx="10" cy="230" r="4" fill="black" />
<circle cx="50" cy="230" r="4" fill="black" />
<circle cx="70" cy="270" r="4" fill="black" />
<circle cx="170" cy="10" r="4" fill="black" />
<circle cx="50" cy="250" r="4" fill="black" />
<circle cx="110" cy="250" r="4" fill="black" />
<circle cx="150" cy="10" r="4" fill="black" />
<circle cx="190" cy="10" r="4" fill="black" />
<circle cx="30" cy="250" r="4" fill="black" />
<circle cx="90" cy="250" r="4" fill="black" />
<circle cx="170" cy="250" r="4" fill="black" />
<circle cx="190" cy="30" r="4" fill="black" />
<circle cx="10" cy="250" r="4" fill="black" />
<circle cx="70" cy="250" r="4" fill="black" />
<circle cx="10" cy="170" r="4" fill="black" />
<circle cx="130" cy="250" r="4" fill="black" />
<circle cx="190" cy="270" r="4" fill="black" />
<circle cx="150" cy="110" r="4" fill="black" />
<circle cx="10" cy="90" r="4" fill="black" />
<circle cx="10" cy="50" r="4" fill="black" />
<circle cx="170" cy="270" r="4" fill="black" />
<circle cx="10" cy="210" r="4" fill="black" />
<circle cx="170" cy="190" r="4" fill="black" />
<circle cx="150" cy="250" r="4" fill="black" />
<circle cx="150" cy="270" r="4" fill="black" />
<circle cx="150" cy="150" r="4" fill="black" />
<circle cx="50" cy="210" r="4" fill="black" />
<path d="M50,270 L10,270" fill="#eeee00" stroke="black" />
<path d="M50,270 L190,10" fill="#eeee00" stroke="black" />
<path d="M50,270 L170,10" fill="#eeee00" stroke="black" />
<path d="M10,270 L130,190" fill="#eeee00" stroke="black" />
<path d="M10,270 L190,30" fill="#eeee00" stroke="black" />
<path d="M10,270 L190,10" fill="#eeee00" stroke="black" />
<path d="M10,270 L170,10" fill="#eeee00" stroke="black" />
<path d="M130,190 L190,30" fill="#eeee00" stroke="black" />
<path d="M130,190 L190,10" fill="#eeee00" stroke="black" />
<path d="M170,10 L190,10" fill="#eeee00" stroke="black" />
<path d="M170,10 L10,50" fill="#eeee00" stroke="black" />
<path d="M170,10 L130,250" fill="#eeee00" stroke="black" />
<path d="M190,10 L190,30" fill="#eeee00" stroke="black" />
<path d="M190,10 L150,250" fill="#eeee00" stroke="black" />
<path d="M190,10 L10,50" fill="#eeee00" stroke="black" />
<path d="M190,10 L130,250" fill="#eeee00" stroke="black" />
<path d="M190,30 L110,250" fill="#eeee00" stroke="black" />
<path d="M190,30 L150,250" fill="#eeee00" stroke="black" />
<path d="M190,30 L10,50" fill="#eeee00" stroke="black" />
<path d="M130,250 L10,50" fill="#eeee00" stroke="black" />
<path d="M10,50 L150,250" fill="#eeee00" stroke="black" />
<path d="M10,50 L30,230" fill="#eeee00" stroke="black" />
<path d="M150,190 L30,230" fill="#eeee00" stroke="black" />
<path d="M150,190 L30,250" fill="#eeee00" stroke="black" />
<path d="M150,190 L50,250" fill="#eeee00" stroke="black" />
<path d="M30,230 L10,230" fill="#eeee00" stroke="black" />
<path d="M30,230 L10,250" fill="#eeee00" stroke="black" />
<path d="M30,230 L30,250" fill="#eeee00" stroke="black" />
<path d="M30,230 L50,250" fill="#eeee00" stroke="black" />
<path d="M10,230 L10,250" fill="#eeee00" stroke="black" />
<path d="M10,230 L30,250" fill="#eeee00" stroke="black" />
<path d="M50,250 L30,250" fill="#eeee00" stroke="black" />
<path d="M50,250 L170,270" fill="#eeee00" stroke="black" />
<path d="M50,250 L190,270" fill="#eeee00" stroke="black" />
<path d="M30,250 L10,250" fill="#eeee00" stroke="black" />
<path d="M30,250 L150,270" fill="#eeee00" stroke="black" />
<path d="M30,250 L170,270" fill="#eeee00" stroke="black" />
<path d="M30,250 L190,270" fill="#eeee00" stroke="black" />
<path d="M10,250 L150,10" fill="#eeee00" stroke="black" />
<path d="M10,250 L150,270" fill="#eeee00" stroke="black" />
<path d="M10,250 L170,270" fill="#eeee00" stroke="black" />
<path d="M190,270 L170,270" fill="#eeee00" stroke="black" />
<path d="M170,270 L150,270" fill="#eeee00" stroke="black" />
<path d="M190,230 L90,230" fill="#eeee00" stroke="black" />
<path d="M190,230 L90,250" fill="#eeee00" stroke="black" />
<path d="M190,230 L110,250" fill="#eeee00" stroke="black" />
<path d="M90,230 L50,230" fill="#eeee00" stroke="black" />
<path d="M90,230 L70,250" fill="#eeee00" stroke="black" />
<path d="M90,230 L90,250" fill="#eeee00" stroke="black" />
<path d="M90,230 L110,250" fill="#eeee00" stroke="black" />
<path d="M50,230 L70,250" fill="#eeee00" stroke="black" />
<path d="M50,230 L90,250" fill="#eeee00" stroke="black" />
<path d="M110,250 L90,250" fill="#eeee00" stroke="black" />
<path d="M110,250 L10,210" fill="#eeee00" stroke="black" />
<path d="M110,250 L150,110" fill="#eeee00" stroke="black" />
<path d="M90,250 L70,250" fill="#eeee00" stroke="black" />
<path d="M90,250 L150,150" fill="#eeee00" stroke="black" />
<path d="M90,250 L10,210" fill="#eeee00" stroke="black" />
<path d="M90,250 L150,110" fill="#eeee00" stroke="black" />
<path d="M70,250 L150,150" fill="#eeee00" stroke="black" />
<path d="M70,250 L10,210" fill="#eeee00" stroke="black" />
<path d="M150,110 L10,210" fill="#eeee00" stroke="black" />
<path d="M10,210 L150,150" fill="#eeee00" stroke="black" />
<path d="M10,210 L110,270" fill="#eeee00" stroke="black" />
<path d="M130,270 L110,270" fill="#eeee00" stroke="black" />
<path d="M130,270 L170,250" fill="#eeee00" stroke="black" />
<path d="M130,270 L150,10" fill="#eeee00" stroke="black" />
<path d="M110,270 L70,270" fill="#eeee00" stroke="black" />
<path d="M110,270 L10,170" fill="#eeee00" stroke="black" />
<path d="M110,270 L170,250" fill="#eeee00" stroke="black" />
<path d="M110,270 L150,10" fill="#eeee00" stroke="black" />
<path d="M70,270 L10,170" fill="#eeee00" stroke="black" />
<path d="M70,270 L170,250" fill="#eeee00" stroke="black" />
<path d="M150,10 L170,250" fill="#eeee00" stroke="black" />
<path d="M150,10 L170,190" fill="#eeee00" stroke="black" />
<path d="M150,10 L10,90" fill="#eeee00" stroke="black" />
<path d="M170,250 L10,170" fill="#eeee00" stroke="black" />
<path d="M170,250 L50,210" fill="#eeee00" stroke="black" />
<path d="M170,250 L170,190" fill="#eeee00" stroke="black" />
<path d="M170,250 L10,90" fill="#eeee00" stroke="black" />
<path d="M10,170 L50,210" fill="#eeee00" stroke="black" />
<path d="M10,170 L170,190" fill="#eeee00" stroke="black" />
<path d="M10,90 L170,190" fill="#eeee00" stroke="black" />
<path d="M170,190 L50,210" fill="#eeee00" stroke="black" />
</svg>