<?xml version="1.0" encoding="UTF-8"?>
<svg xmlns="http://www.w3.org/2000/svg" xmlns:xlink="http://www.w3.org/1999/xlink"
     width="400" height="560" viewBox="0 0 200 280">
<defs>
</defs>
<rect x="0" y="0" width="200" height="280" fill="#777" />
<rect x="6" y="266" width="8" height="8" fill="#1248ff" fill-opacity="0.5" />
<rect x="26" y="266" width="8" height="8" fill="#1248ff" fill-opacity="0.5" />
<rect x="46" y="266" width="8" height="8" fill="#1248ff" fill-opacity="0.5" />
<rect x="66" y="266" width="8" height="8" fill="#1248ff" fill-opacity="0.5" />
<rect x="86" y="266" width="8" height="8" fill="#1248ff" fill-opacity="0.5" />
<rect x="106" y="266" width="8" height="8" fill="#1248ff" fill-opacity="0.5" />
<rect x="126" y="266" width="8" height="8" fill="#1248ff" fill-opacity="0.5" />
<rect x="146" y="266" width="8" height="8" fill="#1248ff" fill-opacity="0.5" />
<rect x="166" y="266" width="8" height="8" fill="#1248ff" fill-opacity="0.5" />
<rect x="186" y="266" width="8" height="8" fill="#1248ff" fill-opacity="0.5" />
<rect x="6" y="246" width="8" height="8" fill="#1248ff" fill-opacity="0.5" />
<rect x="26" y="246" width="8" height="8" fill="#1248ff" fill-opacity="0.5" />
<rect x="46" y="246" width="8" height="8" fill="#1248ff" fill-opacity="0.5" />
<rect x="66" y="246" width="8" height="8" fill="#1248ff" fill-opacity="0.5" />
<rect x="86" y="246" width="8" height="8" fill="#1248ff" fill-opacity="0.5" />
<rect x="106" y="246" width="8" height="8" fill="#1248ff" fill-opacity="0.5" />
<rect x="126" y="246" width="8" height="8" fill="#1248ff" fill-opacity="0.5" />
<rect x="146" y="246" width="8" height="8" fill="#1248ff" fill-opacity="0.5" />
<rect x="166" y="246" width="8" height="8" fill="#1248ff" fill-opacity="0.5" />
<rect x="186" y="246" width="8" height="8" fill="#1248ff" fill-opacity="0.5" />
<rect x="6" y="226" width="8" height="8" fill="#1248ff" fill-opacity="0.5" />
<rect x="26" y="226" width="8" height="8" fill="#1248ff" fill-opacity="0.5" />
<rect x="46" y="226" width="8" height="8" fill="#1248ff" fill-opacity="0.5" />
<rect x="66" y="226" width="8" height="8" fill="#1248ff" fill-opacity="0.5" />
<rect x="86" y="226" width="8" height="8" fill="#1248ff" fill-opacity="0.5" />
<rect x="106" y="226" width="8" height="8" fill="#1248ff" fill-opacity="0.5" />
<rect x="126" y="226" width="8" height="8" fill="#1248ff" fill-opacity="0.5" />
<rect x="146" y="226" width="8" height="8" fill="#1248ff" fill-opacity="0.5" />
<rect x="166" y="226" width="8" height="8" fill="#1248ff" fill-opacity="0.5" />
<rect x="186" y="226" width="8" height="8" fill="#1248ff" fill-opacity="0.5" />
<rect x="6" y="206" width="8" height="8" fill="#1248ff" fill-opacity="0.5" />
<rect x="26" y="206" width="8" height="8" fill="#1248ff" fill-opacity="0.5" />
<rect x="46" y="206" width="8" height="8" fill="#1248ff" fill-opacity="0.5" />
<rect x="66" y="206" width="8" height="8" fill="#1248ff" fill-opacity="0.5" />
<rect x="86" y="206" width="8" height="8" fill="#1248ff" fill-opacity="0.5" />
<rect x="106" y="206" width="8" height="8" fill="#1248ff" fill-opacity="0.5" />
<rect x="126" y="206" width="8" height="8" fill="#1248ff" fill-opacity="0.5" />
<rect x="146" y="206" width="8" height="8" fill="#1248ff" fill-opacity="0.5" />
<rect x="166" y="206" width="8" height="8" fill="#1248ff" fill-opacity="0.5" />
<rect x="186" y="206" width="8" height="8" fill="#1248ff" fill-opacity="0.5" />
<rect x="6" y="186" width="8" height="8" fill="#1248ff" fill-opacity="0.5" />
<rect x="26" y="186" width="8" height="8" fill="#1248ff" fill-opacity="0.5" />
<rect x="46" y="186" width="8" height="8" fill="#1248ff" fill-opacity="0.5" />
<rect x="66" y="186" width="8" height="8" fill="#1248ff" fill-opacity="0.5" />
<rect x="86" y="186" width="8" height="8" fill="#1248ff" fill-opacity="0.5" />
<rect x="106" y="186" width="8" height="8" fill="#1248ff" fill-opacity="0.5" />
<rect x="126" y="186" width="8" height="8" fill="#1248ff" fill-opacity="0.5" />
<rect x="146" y="186" width="8" height="8" fill="#1248ff" fill-opacity="0.5" />
<rect x="166" y="186" width="8" height="8" fill="#1248ff" fill-opacity="0.5" />
<rect x="186" y="186" width="8" height="8" fill="#1248ff" fill-opacity="0.5" />
<rect x="6" y="166" width="8" height="8" fill="#1248ff" fill-opacity="0.5" />
<rect x="26" y="166" width="8" height="8" fill="#1248ff" fill-opacity="0.5" />
<rect x="46" y="166" width="8" height="8" fill="#1248ff" fill-opacity="0.5" />
<rect x="66" y="166" width="8" height="8" fill="#1248ff" fill-opacity="0.5" />
<rect x="86" y="166" width="8" height="8" fill="#1248ff" fill-opacity="0.5" />
<rect x="106" y="166" width="8" height="8" fill="#1248ff" fill-opacity="0.5" />
<rect x="126" y="166" width="8" height="8" fill="#1248ff" fill-opacity="0.5" />
<rect x="146" y="166" width="8" height="8" fill="#1248ff" fill-opacity="0.5" />
<rect x="166" y="166" width="8" height="8" fill="#1248ff" fill-opacity="0.5" />
<rect x="186" y="166" width="8" height="8" fill="#1248ff" fill-opacity="0.5" />
<rect x="6" y="146" width="8" height="8" fill="#1248ff" fill-opacity="0.5" />
<rect x="26" y="146" width="8" height="8" fill="#1248ff" fill-opacity="0.5" />
<rect x="46" y="146" width="8" height="8" fill="#1248ff" fill-opacity="0.5" />
<rect x="66" y="146" width="8" height="8" fill="#1248ff" fill-opacity="0.5" />
<rect x="86" y="146" width="8" height="8" fill="#1248ff" fill-opacity="0.5" />
<rect x="106" y="146" width="8" height="8" fill="#1248ff" fill-opacity="0.5" />
<rect x="126" y="146" width="8" height="8" fill="#1248ff" fill-opacity="0.5" />
<rect x="146" y="146" width="8" height="8" fill="#1248ff" fill-opacity="0.5" />
<rect x="166" y="146" width="8" height="8" fill="#1248ff" fill-opacity="0.5" />
<rect x="186" y="146" width="8" height="8" fill="#1248ff" fill-opacity="0.5" />
<rect x="6" y="126" width="8" height="8" fill="#1248ff" fill-opacity="0.5" />
<rect x="26" y="126" width="8" height="8" fill="#1248ff" fill-opacity="0.5" />
<rect x="46" y="126" width="8" height="8" fill="#1248ff" fill-opacity="0.5" />
<rect x="66" y="126" width="8" height="8" fill="#1248ff" fill-opacity="0.5" />
<rect x="86" y="126" width="8" height="8" fill="#1248ff" fill-opacity="0.5" />
<rect x="106" y="126" width="8" height="8" fill="#1248ff" fill-opacity="0.5" />
<rect x="126" y="126" width="8" height="8" fill="#1248ff" fill-opacity="0.5" />
<rect x="146" y="126" width="8" height="8" fill="#1248ff" fill-opacity="0.5" />
<rect x="166" y="126" width="8" height="8" fill="#1248ff" fill-opacity="0.5" />
<rect x="186" y="126" width="8" height="8" fill="#1248ff" fill-opacity="0.5" />
<rect x="6" y="106" width="8" height="8" fill="#1248ff" fill-opacity="0.5" />
<rect x="26" y="106" width="8" height="8" fill="#1248ff" fill-opacity="0.5" />
<rect x="46" y="106" width="8" height="8" fill="#1248ff" fill-opacity="0.5" />
<rect x="66" y="106" width="8" height="8" fill="#1248ff" fill-opacity="0.5" />
<rect x="86" y="106" width="8" height="8" fill="#1248ff" fill-opacity="0.5" />
<rect x="106" y="106" width="8" height="8" fill="#1248ff" fill-opacity="0.5" />
<rect x="126" y="106" width="8" height="8" fill="#1248ff" fill-opacity="0.5" />
<rect x="146" y="106" width="8" height="8" fill="#1248ff" fill-opacity="0.5" />
<rect x="166" y="106" width="8" height="8" fill="#1248ff" fill-opacity="0.5" />
<rect x="186" y="106" width="8" height="8" fill="#1248ff" fill-opacity="0.5" />
<rect x="6" y="86" width="8" height="8" fill="#1248ff" fill-opacity="0.5" />
<rect x="26" y="86" width="8" height="8" fill="#1248ff" fill-opacity="0.5" />
<rect x="46" y="86" width="8" height="8" fill="#1248ff" fill-opacity="0.5" />
<rect x="66" y="86" width="8" height="8" fill="#1248ff" fill-opacity="0.5" />
<rect x="86" y="86" width="8" height="8" fill="#1248ff" fill-opacity="0.5" />
<rect x="106" y="86" width="8" height="8" fill="#1248ff" fill-opacity="0.5" />
<rect x="126" y="86" width="8" height="8" fill="#1248ff" fill-opacity="0.5" />
<rect x="146" y="86" width="8" height="8" fill="#1248ff" fill-opacity="0.5" />
<rect x="166" y="86" width="8" height="8" fill="#1248ff" fill-opacity="0.5" />
<rect x="186" y="86" width="8" height="8" fill="#1248ff" fill-opacity="0.5" />
<rect x="6" y="66" width="8" height="8" fill="#1248ff" fill-opacity="0.5" />
<rect x="26" y="66" width="8" height="8" fill="#1248ff" fill-opacity="0.5" />
<rect x="46" y="66" width="8" height="8" fill="#1248ff" fill-opacity="0.5" />
<rect x="66" y="66" width="8" height="8" fill="#1248ff" fill-opacity="0.5" />
<rect x="86" y="66" width="8" height="8" fill="#1248ff" fill-opacity="0.5" />
<rect x="106" y="66" width="8" height="8" fill="#1248ff" fill-opacity="0.5" />
<rect x="126" y="66" width="8" height="8" fill="#1248ff" fill-opacity="0.5" />
<rect x="146" y="66" width="8" height="8" fill="#1248ff" fill-opacity="0.5" />
<rect x="166" y="66" width="8" height="8" fill="#1248ff" fill-opacity="0.5" />
<rect x="186" y="66" width="8" height="8" fill="#1248ff" fill-opacity="0.5" />
<rect x="6" y="46" width="8" height="8" fill="#1248ff" fill-opacity="0.5" />
<rect x="26" y="46" width="8" height="8" fill="#1248ff" fill-opacity="0.5" />
<rect x="46" y="46" width="8" height="8" fill="#1248ff" fill-opacity="0.5" />
<rect x="66" y="46" width="8" height="8" fill="#1248ff" fill-opacity="0.5" />
<rect x="86" y="46" width="8" height="8" fill="#1248ff" fill-opacity="0.5" />
<rect x="106" y="46" width="8" height="8" fill="#1248ff" fill-opacity="0.5" />
<rect x="126" y="46" width="8" height="8" fill="#1248ff" fill-opacity="0.5" />
<rect x="146" y="46" width="8" height="8" fill="#1248ff" fill-opacity="0.5" />
<rect x="166" y="46" width="8" height="8" fill="#1248ff" fill-opacity="0.5" />
<rect x="186" y="46" width="8" height="8" fill="#1248ff" fill-opacity="0.5" />
<rect x="6" y="26" width="8" height="8" fill="#1248ff" fill-opacity="0.5" />
<rect x="26" y="26" width="8" height="8" fill="#1248ff" fill-opacity="0.5" />
<rect x="46" y="26" width="8" height="8" fill="#1248ff" fill-opacity="0.5" />
<rect x="66" y="26" width="8" height="8" fill="#1248ff" fill-opacity="0.5" />
<rect x="86" y="26" width="8" height="8" fill="#1248ff" fill-opacity="0.5" />
<rect x="106" y="26" width="8" height="8" fill="#1248ff" fill-opacity="0.5" />
<rect x="126" y="26" width="8" height="8" fill="#1248ff" fill-opacity="0.5" />
<rect x="146" y="26" width="8" height="8" fill="#1248ff" fill-opacity="0.5" />
<rect x="166" y="26" width="8" height="8" fill="#1248ff" fill-opacity="0.5" />
<rect x="186" y="26" width="8" height="8" fill="#1248ff" fill-opacity="0.5" />
<rect x="6" y="6" width="8" height="8" fill="#1248ff" fill-opacity="0.5" />
<rect x="26" y="6" width="8" height="8" fill="#1248ff" fill-opacity="0.5" />
<rect x="46" y="6" width="8" height="8" fill="#1248ff" fill-opacity="0.5" />
<rect x="66" y="6" width="8" height="8" fill="#1248ff" fill-opacity="0.5" />
<rect x="86" y="6" width="8" height="8" fill="#1248ff" fill-opacity="0.5" />
<rect x="106" y="6" width="8" height="8" fill="#1248ff" fill-opacity="0.5" />
<rect x="126" y="6" width="8" height="8" fill="#1248ff" fill-opacity="0.5" />
<rect x="146" y="6" width="8" height="8" fill="#1248ff" fill-opacity="0.5" />
<rect x="166" y="6" width="8" height="8" fill="#1248ff" fill-opacity="0.5" />
<rect x="186" y="6" width="8" height="8" fill="#1248ff" fill-opacity="0.5" />
<circle cx="40" cy="220" r="4" fill="black" />
<circle cx="40" cy="80" r="4" fill="black" />
<circle cx="140" cy="220" r="4" fill="black" />
<circle cx="140" cy="80" r="4" fill="black" />
<circle cx="50" cy="220" r="4" fill="black" />
<circle cx="50" cy="80" r="4" fill="black" />
<circle cx="150" cy="220" r="4" fill="black" />
<circle cx="150" cy="80" r="4" fill="black" />
<circle cx="60" cy="220" r="4" fill="black" />
<circle cx="60" cy="80" r="4" fill="black" />
<circle cx="160" cy="220" r="4" fill="black" />
<circle cx="160" cy="80" r="4" fill="black" />
<circle cx="40" cy="210" r="4" fill="black" />
<circle cx="40" cy="70" r="4" fill="black" />
<circle cx="140" cy="210" r="4" fill="black" />
<circle cx="140" cy="70" r="4" fill="black" />
<circle cx="50" cy="210" r="4" fill="black" />
<circle cx="50" cy="70" r="4" fill="black" />
<circle cx="150" cy="210" r="4" fill="black" />
<circle cx="150" cy="70" r="4" fill="black" />
<circle cx="60" cy="210" r="4" fill="black" />
<circle cx="60" cy="70" r="4" fill="black" />
<circle cx="160" cy="210" r="4" fill="black" />
<circle cx="160" cy="70" r="4" fill="black" />
<circle cx="40" cy="200" r="4" fill="black" />
<circle cx="40" cy="60" r="4" fill="black" />
<circle cx="140" cy="200" r="4" fill="black" />
<circle cx="140" cy="60" r="4" fill="black" />
<circle cx="50" cy="200" r="4" fill="black" />
<circle cx="50" cy="60" r="4" fill="black" />
<circle cx="150" cy="200" r="4" fill="black" />
<circle cx="150" cy="60" r="4" fill="black" />
<circle cx="60" cy="200" r="4" fill="black" />
<circle cx="60" cy="60" r="4" fill="black" />
<circle cx="160" cy="200" r="4" fill="black" />
<circle cx="160" cy="60" r="4" fill="black" />
<path d="M40,220 L50,220" fill="#eeee00" stroke="black" />
<path d="M40,220 L50,210" fill="#eeee00" stroke="black" />
<path d="M40,220 L40,210" fill="#eeee00" stroke="black" />
<path d="M50,220 L60,220" fill="#eeee00" stroke="black" />
<path d="M50,220 L60,210" fill="#eeee00" stroke="black" />
<path d="M50,220 L50,210" fill="#eeee00" stroke="black" />
<path d="M50,220 L40,210" fill="#eeee00" stroke="black" />
<path d="M60,220 L60,210" fill="#eeee00" stroke="black" />
<path d="M60,220 L50,210" fill="#eeee00" stroke="black" />
<path d="M40,210 L50,210" fill="#eeee00" stroke="black" />
<path d="M40,210 L50,200" fill="#eeee00" stroke="black" />
<path d="M40,210 L40,200" fill="#eeee00" stroke="black" />
<path d="M50,210 L60,210" fill="#eeee00" stroke="black" />
<path d="M50,210 L60,200" fill="#eeee00" stroke="black" />
<path d="M50,210 L50,200" fill="#eeee00" stroke="black" />
<path d="M50,210 L40,200" fill="#eeee00" stroke="black" />
<path d="M60,210 L140,210" fill="#eeee00" stroke="black" />
<path d="M60,210 L60,200" fill="#eeee00" stroke="black" />
<path d="M60,210 L50,200" fill="#eeee00" stroke="black" />
<path d="M40,200 L50,200" fill="#eeee00" stroke="black" />
<path d="M50,200 L60,200" fill="#eeee00" stroke="black" />
<path d="M50,200 L50,80" fill="#eeee00" stroke="black" />
<path d="M40,80 L50,80" fill="#eeee00" stroke="black" />
<path d="M40,80 L50,70" fill="#eeee00" stroke="black" />
<path d="M40,80 L40,70" fill="#eeee00" stroke="black" />
<path d="M50,80 L60,80" fill="#eeee00" stroke="black" />
<path d="M50,80 L60,70" fill="#eeee00" stroke="black" />
<path d="M50,80 L50,70" fill="#eeee00" stroke="black" />
<path d="M50,80 L40,70" fill="#eeee00" stroke="black" />
<path d="M60,80 L60,70" fill="#eeee00" stroke="black" />
<path d="M60,80 L50,70" fill="#eeee00" stroke="black" />
<path d="M40,70 L50,70" fill="#eeee00" stroke="black" />
<path d="M40,70 L50,60" fill="#eeee00" stroke="black" />
<path d="M40,70 L40,60" fill="#eeee00" stroke="black" />
<path d="M50,70 L60,70" fill="#eeee00" stroke="black" />
<path d="M50,70 L60,60" fill="#eeee00" stroke="black" />
<path d="M50,70 L50,60" fill="#eeee00" stroke="black" />
<path d="M50,70 L40,60" fill="#eeee00" stroke="black" />
<path d="M60,70 L140,70" fill="#eeee00" stroke="black" />
<path d="M60,70 L60,60" fill="#eeee00" stroke="black" />
<path d="M60,70 L50,60" fill="#eeee00" stroke="black" />
<path d="M40,60 L50,60" fill="#eeee00" stroke="black" />
<path d="M50,60 L60,60" fill="#eeee00" stroke="black" />
<path d="M140,220 L150,220" fill="#eeee00" stroke="black" />
<path d="M140,220 L150,210" fill="#eeee00" stroke="black" />
<path d="M140,220 L140,210" fill="#eeee00" stroke="black" />
<path d="M150,220 L160,220" fill="#eeee00" stroke="black" />
<path d="M150,220 L160,210" fill="#eeee00" stroke="black" />
<path d="M150,220 L150,210" fill="#eeee00" stroke="black" />
<path d="M150,220 L140,210" fill="#eeee00" stroke="black" />
<path d="M160,220 L160,210" fill="#eeee00" stroke="black" />
<path d="M160,220 L150,210" fill="#eeee00" stroke="black" />
<path d="M140,210 L150,210" fill="#eeee00" stroke="black" />
<path d="M140,210 L150,200" fill="#eeee00" stroke="black" />
<path d="M140,210 L140,200" fill="#eeee00" stroke="black" />
<path d="M150,210 L160,210" fill="#eeee00" stroke="black" />
<path d="M150,210 L160,200" fill="#eeee00" stroke="black" />
<path d="M150,210 L150,200" fill="#eeee00" stroke="black" />
<path d="M150,210 L140,200" fill="#eeee00" stroke="black" />
<path d="M160,210 L160,200" fill="#eeee00" stroke="black" />
<path d="M160,210 L150,200" fill="#eeee00" stroke="black" />
<path d="M140,200 L150,200" fill="#eeee00" stroke="black" />
<path d="M150,200 L160,200" fill="#eeee00" stroke="black" />
<path d="M150,200 L150,80" fill="#eeee00" stroke="black" />
<path d="M140,80 L150,80" fill="#eeee00" stroke="black" />
<path d="M140,80 L150,70" fill="#eeee00" stroke="black" />
<path d="M140,80 L140,70" fill="#eeee00" stroke="black" />
<path d="M150,80 L160,80" fill="#eeee00" stroke="black" />
<path d="M150,80 L160,70" fill="#eeee00" stroke="black" />
<path d="M150,80 L150,70" fill="#eeee00" stroke="black" />
<path d="M150,80 L140,70" fill="#eeee00" stroke="black" />
<path d="M160,80 L160,70" fill="#eeee00" stroke="black" />
<path d="M160,80 L150,70" fill="#eeee00" stroke="black" />
<path d="M140,70 L150,70" fill="#eeee00" stroke="black" />
<path d="M140,70 L150,60" fill="#eeee00" stroke="black" />
<path d="M140,70 L140,60" fill="#eeee00" stroke="black" />
<path d="M150,70 L160,70" fill="#eeee00" stroke="black" />
<path d="M150,70 L160,60" fill="#eeee00" stroke="black" />
<path d="M150,70 L150,60" fill="#eeee00" stroke="black" />
<path d="M150,70 L140,60" fill="#eeee00" stroke="black" />
<path d="M160,70 L160,60" fill="#eeee00" stroke="black" />
<path d="M160,70 L150,60" fill="#eeee00" stroke="black" />
<path d="M140,60 L150,60" fill="#eeee00" stroke="black" />
<path d="M150,60 L160,60" fill="#eeee00" stroke="black" />
</svg>